<svg xmlns="http://www.w3.org/2000/svg" width="430" height="932" viewBox="0 0 430 932"><rect width="430" height="932" fill="#E7E0D2"/><rect x="0" y="0" width="430" height="56" fill="#E7E0D2"/><line x1="0" y1="56" x2="430" y2="56" stroke="#D8CFBE"/><g transform="translate(30,28) scale(0.3) translate(-40,-32)" opacity="1"><path d="M8 20 L72 20 L62 30 L50 30 L50 40 L56 52 L24 52 L30 40 L30 30 L18 30 Z" fill="#15130E"/><rect x="34" y="40" width="12" height="14" fill="#15130E"/></g><text x="48" y="35" font-family="Georgia, 'Times New Roman', serif" font-size="19" font-weight="bold" letter-spacing="3" fill="#15130E">ANVIL</text><text x="114" y="34" font-family="Inter, Helvetica, Arial, sans-serif" font-size="9" fill="#8B8475">▾</text><text x="412" y="34" font-family="'DM Mono','Courier New',monospace" font-size="12" fill="#8B8475" text-anchor="end">Hi, Matheus</text><text x="20" y="100" font-family="'DM Mono','Courier New',monospace" font-size="11" letter-spacing="2" fill="#8B8475">THE LONG GAME</text><rect x="18" y="112" width="394" height="108" rx="18" fill="#F2EDE4" stroke="#D8CFBE"/><text x="36" y="140" font-family="'DM Mono','Courier New',monospace" font-size="11" letter-spacing="2" fill="#8B8475">THIS WEEK</text><circle cx="42" cy="172" r="17" fill="#A8895E" stroke="#A8895E"/><path d="M36 172 l4 5 l8 -9" stroke="#E7E0D2" stroke-width="2.2" fill="none" stroke-linecap="round"/><text x="42" y="205" font-family="'DM Mono','Courier New',monospace" font-size="11" fill="#8B8475" text-anchor="middle">M</text><circle cx="99" cy="172" r="17" fill="#A8895E" stroke="#A8895E"/><path d="M93 172 l4 5 l8 -9" stroke="#E7E0D2" stroke-width="2.2" fill="none" stroke-linecap="round"/><text x="99" y="205" font-family="'DM Mono','Courier New',monospace" font-size="11" fill="#8B8475" text-anchor="middle">T</text><circle cx="156" cy="172" r="17" fill="#F2EDE4" stroke="#D8CFBE"/><circle cx="156" cy="172" r="3" fill="#D8CFBE"/><text x="156" y="205" font-family="'DM Mono','Courier New',monospace" font-size="11" fill="#8B8475" text-anchor="middle">W</text><circle cx="213" cy="172" r="17" fill="#A8895E" stroke="#A8895E"/><path d="M207 172 l4 5 l8 -9" stroke="#E7E0D2" stroke-width="2.2" fill="none" stroke-linecap="round"/><text x="213" y="205" font-family="'DM Mono','Courier New',monospace" font-size="11" fill="#8B8475" text-anchor="middle">T</text><circle cx="270" cy="172" r="17" fill="#A8895E" stroke="#A8895E"/><path d="M264 172 l4 5 l8 -9" stroke="#E7E0D2" stroke-width="2.2" fill="none" stroke-linecap="round"/><text x="270" y="205" font-family="'DM Mono','Courier New',monospace" font-size="11" fill="#8B8475" text-anchor="middle">F</text><circle cx="327" cy="172" r="17" fill="#F2EDE4" stroke="#D8CFBE"/><circle cx="327" cy="172" r="3" fill="#D8CFBE"/><text x="327" y="205" font-family="'DM Mono','Courier New',monospace" font-size="11" fill="#8B8475" text-anchor="middle">S</text><circle cx="384" cy="172" r="17" fill="#F2EDE4" stroke="#D8CFBE"/><circle cx="384" cy="172" r="3" fill="#D8CFBE"/><text x="384" y="205" font-family="'DM Mono','Courier New',monospace" font-size="11" fill="#8B8475" text-anchor="middle">S</text><rect x="18" y="236" width="394" height="106" rx="18" fill="#F2EDE4" stroke="#D8CFBE"/><text x="36" y="282" font-family="Georgia, 'Times New Roman', serif" font-size="19" font-weight="bold" fill="#15130E">Current streak</text><text x="394" y="286" font-family="Georgia, 'Times New Roman', serif" font-size="30" font-weight="bold" fill="#7C6342" text-anchor="end">12</text><rect x="36" y="302" width="358" height="7" rx="3.5" fill="#EBE1D0"/><rect x="36" y="302" width="143.20000000000002" height="7" rx="3.5" fill="#7C6342"/><text x="36" y="330" font-family="'DM Mono','Courier New',monospace" font-size="11" fill="#8B8475">18 days to Forged</text><rect x="18" y="360" width="394" height="48" rx="16" fill="#F2EDE4" stroke="#D8CFBE"/><text x="215.0" y="390" font-family="Inter, Helvetica, Arial, sans-serif" font-size="15" fill="#15130E" text-anchor="middle">Add or modify a commitment</text><rect x="18" y="418" width="394" height="48" rx="16" fill="#F2EDE4" stroke="#D8CFBE"/><text x="215.0" y="448" font-family="Inter, Helvetica, Arial, sans-serif" font-size="15" fill="#15130E" text-anchor="middle">Create or join a circle</text><rect x="18" y="848" width="394" height="70" rx="26" fill="#241C13"/><circle cx="60" cy="874" r="9" fill="none" stroke="#C3B49B" stroke-width="2"/><text x="60" y="902" font-family="'DM Mono','Courier New',monospace" font-size="11" fill="#C3B49B" text-anchor="middle">Circle</text><path d="M148 879 L157 868 L166 879 L166 883 L148 883 Z" fill="none" stroke="#C3B49B" stroke-width="2" stroke-linejoin="round"/><text x="157" y="902" font-family="'DM Mono','Courier New',monospace" font-size="11" fill="#C3B49B" text-anchor="middle">Home</text><rect x="245" y="868" width="18" height="15" rx="4" fill="none" stroke="#C3B49B" stroke-width="2"/><circle cx="254" cy="876" r="4" fill="#C3B49B"/><text x="254" y="902" font-family="'DM Mono','Courier New',monospace" font-size="11" fill="#C3B49B" text-anchor="middle">Camera</text><line x1="342" y1="868" x2="360" y2="868" stroke="#F0E7D6" stroke-width="2" stroke-linecap="round"/><line x1="342" y1="874" x2="360" y2="874" stroke="#F0E7D6" stroke-width="2" stroke-linecap="round"/><line x1="342" y1="880" x2="360" y2="880" stroke="#F0E7D6" stroke-width="2" stroke-linecap="round"/><text x="351" y="902" font-family="'DM Mono','Courier New',monospace" font-size="11" fill="#F0E7D6" text-anchor="middle">Routine</text><rect x="342" y="908" width="18" height="2" rx="1" fill="#F0E7D6"/></svg>